<svg xmlns="http://www.w3.org/2000/svg" width="287.284" height="66" viewBox="0 0 287.284 66">
  <g id="Group_15" data-name="Group 15" transform="translate(0)">
    <text id="frizzmo" transform="translate(67.284 52)" fill="#00aa75" font-size="54" font-family="Montserrat-ExtraBold, Montserrat" font-weight="800"><tspan x="0" y="0">frizzmo</tspan></text>
    <path id="Path_273" data-name="Path 273" d="M161.778,914.554a3.148,3.148,0,0,0-4.164,1.023,29.28,29.28,0,0,1-2.188,3.062,76.59,76.59,0,0,1-11.806,9.815.535.535,0,0,1-.6,0c-5.234-3.683-11.161-7.871-14.86-13.915a8.631,8.631,0,0,1,.74-10.492,8.194,8.194,0,0,1,5.777-2.621h.157a8.179,8.179,0,0,1,5.659,2.314l.047.047h0a1.629,1.629,0,0,0,2.786-1.157v-3.258a1.7,1.7,0,0,0-.732-1.393,13.915,13.915,0,0,0-17.9,2,14.477,14.477,0,0,0-1.511,17.568c4.329,7.084,10.783,11.625,16.474,15.64a6.377,6.377,0,0,0,3.676,1.157,6.3,6.3,0,0,0,3.51-1.055,82.578,82.578,0,0,0,12.948-10.807,32.368,32.368,0,0,0,2.983-3.857,2.888,2.888,0,0,0-1-4.085Z" transform="translate(-120.923 -878.843)" fill="#00aa75"/>
    <path id="Path_272" data-name="Path 272" d="M181.265,891.433a25.651,25.651,0,0,1-7.446,11.971,21.762,21.762,0,0,1-12.593,5.51,2.613,2.613,0,0,1-1.771-.315c-1.3-.976-.944-3.675-.606-5.014A8.659,8.659,0,0,1,161.9,898.9c2.023-1.574,4.62-2.1,7.084-2.778a20.984,20.984,0,0,0,3.691-1.33.693.693,0,0,0-.417-1.3,7.324,7.324,0,0,1-.945.1c-1.527.063-3.062-.063-4.581.11-.976.11-2.448.417-3.07-.614a1.708,1.708,0,0,1,.5-2.2,15.468,15.468,0,0,1,6.706-3.148h.173c.283,0,.5-.079.787-.079-9-1.637-14.065,5.848-15.553,14.239a1.574,1.574,0,0,1-3.148,0,15.066,15.066,0,0,1,.094-5.769,18.843,18.843,0,0,1,5.659-10.106,18.481,18.481,0,0,1,6.3-4.124c2.771-1.157,8.036-2.165,16.072-.3a1.621,1.621,0,0,1,1.275,1.574A30.249,30.249,0,0,1,181.265,891.433Z" transform="translate(-127.73 -875.643)" fill="#00aa75"/>
  </g>
</svg>
