<svg xmlns="http://www.w3.org/2000/svg" width="1024" height="255.972" viewBox="0 0 1024 255.972">
  <g id="Group_25999" data-name="Group 25999" opacity="0.996">
    <g id="Group_25746" data-name="Group 25746" transform="translate(282.541 51.189)">
      <path id="Path_29153" data-name="Path 29153" d="M195.761,84.355v74.492H162.35V84.355H145.59V57.109h16.76v-8.92c0-21.1,13.372-40.729,44.546-40.729a70.191,70.191,0,0,1,21.752,3.389L225.147,38c-9.125-3.911-30.541-5.717-30.541,12.105v7h28.2V84.355Z" transform="translate(-145.59 -7.46)" fill="#fff"/>
      <path id="Path_29154" data-name="Path 29154" d="M255.754,33a39.67,39.67,0,0,1,12.385,2.086L266.108,64.25a38.711,38.711,0,0,0-12.831-2.235c-12.627,0-23.335,6.891-23.335,25.886v49H196.57V35.086h31.511l1.061,13.893C233.909,38.9,243.928,33,255.754,33Z" transform="translate(-101.629 14.563)" fill="#fff"/>
      <path id="Path_29155" data-name="Path 29155" d="M243.12,25.8c0-10.8,7.449-18.344,18.251-18.344s18.456,7.449,18.456,18.344-7.637,18.251-18.456,18.251A17.432,17.432,0,0,1,243.119,25.8ZM278.3,158.922H244.777V57.109H278.3Z" transform="translate(-61.507 -7.46)" fill="#fff"/>
      <path id="Path_29156" data-name="Path 29156" d="M273.25,114.088l43.895-52.406H273.25V34.12h82.091V56.058l-43.709,52.331h46.819v27.544h-85.2Z" transform="translate(-35.508 15.53)" fill="#fff"/>
      <path id="Path_29157" data-name="Path 29157" d="M327.53,114.088l43.913-52.406H327.53V34.12h82.091V56.058l-43.69,52.331h46.874v27.544H327.53Z" transform="translate(11.299 15.53)" fill="#fff"/>
      <path id="Path_29158" data-name="Path 29158" d="M518.421,80.27c0-11.36-8.286-16.761-16.648-16.761s-17.189,5.4-17.189,16.761V136.9h-33.41V80.27a16.072,16.072,0,0,0-16.65-16.761c-8.381,0-16.966,5.4-16.966,16.761V136.9H384.15V35.09H414.8L415.863,45.8C423.071,36.729,435.363,33,447.356,33c13.576,0,26.613,5.717,32.031,16.965A41.31,41.31,0,0,1,513.636,33c19.628,0,38.2,12.924,38.2,37.749V136.9H518.421Z" transform="translate(60.121 14.559)" fill="#fff"/>
      <path id="Path_29159" data-name="Path 29159" d="M594.372,85.983c0,30.337-23.222,53.039-54.714,53.039S485,116.32,485,85.983,508.148,33,539.658,33,594.372,55.646,594.372,85.983Zm-76.355,0c0,13.8,8.9,23.446,21.641,23.446s21.7-9.647,21.7-23.446-8.9-23.428-21.622-23.428S518.018,72.2,518.018,85.983Z" transform="translate(147.087 14.563)" fill="#fff"/>
    </g>
    <g id="Group_25747" data-name="Group 25747" transform="translate(0 0)">
      <path id="Path_29160" data-name="Path 29160" d="M327.744,991.53a15.938,15.938,0,0,0-21.078,5.18,148.516,148.516,0,0,1-11.077,15.5c-11.157,12.63-39.645,36.337-59.766,49.685a2.714,2.714,0,0,1-3.029,0c-26.5-18.647-56.5-39.844-75.227-70.444-10.838-17.69-9.284-39.567,3.745-53.114a41.49,41.49,0,0,1,29.246-13.27h.8A41.414,41.414,0,0,1,220,936.783l.239.239h0a8.248,8.248,0,0,0,14.105-5.857V914.672a8.609,8.609,0,0,0-3.706-7.056,70.445,70.445,0,0,0-90.606,10.122c-22.273,23.269-25.421,59.768-7.65,88.931,21.915,35.862,54.587,58.853,83.395,79.17a32.255,32.255,0,0,0,18.607,5.858,31.847,31.847,0,0,0,17.77-5.336c22.194-14.744,52.834-40.323,65.544-54.709a163.3,163.3,0,0,0,15.1-19.524,14.62,14.62,0,0,0-5.06-20.677Z" transform="translate(-120.923 -835.725)" fill="#fff"/>
      <path id="Path_29161" data-name="Path 29161" d="M296.52,935.538a129.862,129.862,0,0,1-37.693,60.6,110.147,110.147,0,0,1-63.751,27.889,13.232,13.232,0,0,1-8.965-1.594c-6.575-4.941-4.782-18.606-3.068-25.379a43.832,43.832,0,0,1,15.459-23.71c10.24-7.968,23.389-10.636,35.861-14.062a106.164,106.164,0,0,0,18.687-6.737,3.506,3.506,0,0,0-2.112-6.574,37.858,37.858,0,0,1-4.781.519c-7.729.318-15.5-.318-23.19.56-4.941.555-12.391,2.108-15.539-3.11a8.645,8.645,0,0,1,2.51-11.116,78.289,78.289,0,0,1,33.948-15.937h.877c1.434,0,2.55-.4,3.984-.4-45.582-8.291-71.2,29.6-78.732,72.075a7.969,7.969,0,0,1-15.939,0,76.272,76.272,0,0,1,.478-29.2A95.386,95.386,0,0,1,183.2,908.2a93.456,93.456,0,0,1,31.876-20.877c14.025-5.857,40.681-10.959,81.363-1.514a8.205,8.205,0,0,1,6.455,7.969A153.146,153.146,0,0,1,296.52,935.538Z" transform="translate(-25.508 -880.577)" fill="#fff"/>
    </g>
  </g>
</svg>
