<svg xmlns="http://www.w3.org/2000/svg" width="1024" height="944.96" viewBox="0 0 1024 944.96">
  <g id="Group_17358" data-name="Group 17358" transform="translate(-175 -242.868)">
    <g id="Group_6663" data-name="Group 6663" transform="translate(175 242.868)">
      <path id="Path_273" data-name="Path 273" d="M884.426,1249.715a58.839,58.839,0,0,0-77.812,19.121,546.994,546.994,0,0,1-40.89,57.219c-41.186,46.629-146.355,134.148-220.636,183.424a10.007,10.007,0,0,1-11.179,0c-97.815-68.838-208.575-147.088-277.707-260.053-40.009-65.311-34.272-146.061,13.827-196.072a153.119,153.119,0,0,1,107.964-48.979h2.942a152.82,152.82,0,0,1,105.757,43.242l.883.883h0a30.448,30.448,0,0,0,52.07-21.621v-60.9a31.772,31.772,0,0,0-13.68-26.035A260.055,260.055,0,0,0,191.484,977.3c-82.224,85.9-93.844,220.635-28.242,328.3,80.9,132.381,201.514,217.252,307.859,292.27a119.137,119.137,0,0,0,68.691,21.621,117.669,117.669,0,0,0,65.6-19.711c81.929-54.424,195.042-148.854,241.964-201.953a604.228,604.228,0,0,0,55.747-72.076,53.982,53.982,0,0,0-18.68-76.34Z" transform="translate(-120.923 -674.54)" fill="#03a678"/>
      <path id="Path_272" data-name="Path 272" d="M683.106,1083.467a479.36,479.36,0,0,1-139.148,223.723,406.7,406.7,0,0,1-235.344,102.965,48.849,48.849,0,0,1-33.095-5.887c-24.27-18.236-17.651-68.689-11.327-93.693a161.808,161.808,0,0,1,57.071-87.521c37.8-29.416,86.342-39.271,132.381-51.922a392.043,392.043,0,0,0,68.986-24.859,12.944,12.944,0,0,0-7.8-24.271,137.631,137.631,0,0,1-17.651,1.914c-28.536,1.178-57.218-1.176-85.607,2.061-18.239,2.061-45.745,7.795-57.365-11.475a31.92,31.92,0,0,1,9.267-41.039A289.1,289.1,0,0,1,488.8,1014.625h3.236c5.3,0,9.414-1.469,14.709-1.469-168.271-30.6-262.85,109.289-290.65,266.086a29.418,29.418,0,0,1-58.836,0,281.534,281.534,0,0,1,1.765-107.816A352.133,352.133,0,0,1,264.781,982.561a345.341,345.341,0,0,1,117.673-77.072c51.775-21.625,150.179-40.453,300.357-5.592a30.3,30.3,0,0,1,23.829,29.418A565.274,565.274,0,0,1,683.106,1083.467Z" transform="translate(317.36 -880.577)" fill="#03a678"/>
    </g>
  </g>
</svg>
